# xmcd
#
# Track frame offsets:
#	150
#	18789
#	32865
#	49475
#	65260
#	78134
#	98688
#	113788
#	131911
#	145121
#	160712
#	180953
#
# Disc length: 2624 seconds
#
# Revision: 1
# Processed by: cddbd v1.5.2PL0 Copyright (c) Steve Scherf et al.
# Submitted via: audiograbber 1.81.03
#
DISCID=910a3e0c
DTITLE=Bob`Snider - A Maze In Greys
DYEAR=2007
DGENRE=Blues
TTITLE0=Billy Said
TTITLE1=Plum
TTITLE2=Greetings As I Leave
TTITLE3=Time'll Get You Money
TTITLE4=Sitting In A Doorway
TTITLE5=I Used To Be Able To Yodel
TTITLE6=Ducks On The Pond
TTITLE7=Too Many Numbers
TTITLE8=Dancing Eyes 
TTITLE9=Fireman
TTITLE10=Rainy Afternoon
TTITLE11=Rusty Pail Blues
EXTD=
EXTT0=
EXTT1=
EXTT2=
EXTT3=
EXTT4=
EXTT5=
EXTT6=
EXTT7=
EXTT8=
EXTT9=
EXTT10=
EXTT11=
PLAYORDER=
